<?xml version="1.0" encoding="UTF-8" standalone="no"?>
<!DOCTYPE svg PUBLIC "-//W3C//DTD SVG 1.1//EN"
 "http://www.w3.org/Graphics/SVG/1.1/DTD/svg11.dtd">
<!-- Generated by graphviz version 2.38.0 (20140413.2041)
 -->
<!-- Title: models_diagram Pages: 1 -->
<svg width="656pt" height="288pt"
 viewBox="0.00 0.00 656.34 288.00" xmlns="http://www.w3.org/2000/svg" xmlns:xlink="http://www.w3.org/1999/xlink">
<g id="graph0" class="graph" transform="scale(1 1) rotate(0) translate(4 284)">
<title>models_diagram</title>
<polygon fill="none" stroke="none" points="-4,4 -4,-284 652.343,-284 652.343,4 -4,4"/>
<!-- _diagram_info -->
<g id="node1" class="node"><title>_diagram_info</title>
<text text-anchor="start" x="8" y="-258.6" font-family="Times,serif" font-size="13.00">Models diagram</text>
<text text-anchor="start" x="8" y="-244.6" font-family="Times,serif" font-size="13.00">Date: Jul 19 2017 &#45; 19:58</text>
<text text-anchor="start" x="8" y="-230.6" font-family="Times,serif" font-size="13.00">Migration version: 20170719235714</text>
<text text-anchor="start" x="8" y="-216.6" font-family="Times,serif" font-size="13.00">Generated by RailRoady 1.5.3</text>
<text text-anchor="start" x="8" y="-202.6" font-family="Times,serif" font-size="13.00">http://railroady.prestonlee.com</text>
</g>
<!-- Item -->
<g id="node2" class="node"><title>Item</title>
<path fill="none" stroke="black" d="M244,-0.5C244,-0.5 464,-0.5 464,-0.5 470,-0.5 476,-6.5 476,-12.5 476,-12.5 476,-139.5 476,-139.5 476,-145.5 470,-151.5 464,-151.5 464,-151.5 244,-151.5 244,-151.5 238,-151.5 232,-145.5 232,-139.5 232,-139.5 232,-12.5 232,-12.5 232,-6.5 238,-0.5 244,-0.5"/>
<text text-anchor="middle" x="354" y="-136.3" font-family="Times,serif" font-size="14.00">Item</text>
<polyline fill="none" stroke="black" points="232,-128.5 476,-128.5 "/>
<text text-anchor="start" x="240" y="-113.3" font-family="Times,serif" font-size="14.00">id :integer</text>
<text text-anchor="start" x="240" y="-98.3" font-family="Times,serif" font-size="14.00">item :character varying</text>
<text text-anchor="start" x="240" y="-83.3" font-family="Times,serif" font-size="14.00">nserie :integer</text>
<text text-anchor="start" x="240" y="-68.3" font-family="Times,serif" font-size="14.00">sizeItem :integer</text>
<text text-anchor="start" x="240" y="-53.3" font-family="Times,serif" font-size="14.00">depGeneric :text</text>
<text text-anchor="start" x="240" y="-38.3" font-family="Times,serif" font-size="14.00">category_id :integer</text>
<text text-anchor="start" x="240" y="-23.3" font-family="Times,serif" font-size="14.00">created_at :timestamp without time zone</text>
<text text-anchor="start" x="240" y="-8.3" font-family="Times,serif" font-size="14.00">updated_at :timestamp without time zone</text>
</g>
<!-- ApplicationRecord -->
<g id="node3" class="node"><title>ApplicationRecord</title>
<ellipse fill="none" stroke="black" cx="571" cy="-234" rx="77.1866" ry="18"/>
<text text-anchor="middle" x="571" y="-230.3" font-family="Times,serif" font-size="14.00">ApplicationRecord</text>
</g>
<!-- Category -->
<g id="node4" class="node"><title>Category</title>
<path fill="none" stroke="black" d="M244,-188.5C244,-188.5 464,-188.5 464,-188.5 470,-188.5 476,-194.5 476,-200.5 476,-200.5 476,-267.5 476,-267.5 476,-273.5 470,-279.5 464,-279.5 464,-279.5 244,-279.5 244,-279.5 238,-279.5 232,-273.5 232,-267.5 232,-267.5 232,-200.5 232,-200.5 232,-194.5 238,-188.5 244,-188.5"/>
<text text-anchor="middle" x="354" y="-264.3" font-family="Times,serif" font-size="14.00">Category</text>
<polyline fill="none" stroke="black" points="232,-256.5 476,-256.5 "/>
<text text-anchor="start" x="240" y="-241.3" font-family="Times,serif" font-size="14.00">id :integer</text>
<text text-anchor="start" x="240" y="-226.3" font-family="Times,serif" font-size="14.00">name :character varying</text>
<text text-anchor="start" x="240" y="-211.3" font-family="Times,serif" font-size="14.00">created_at :timestamp without time zone</text>
<text text-anchor="start" x="240" y="-196.3" font-family="Times,serif" font-size="14.00">updated_at :timestamp without time zone</text>
</g>
<!-- Category&#45;&gt;Item -->
<g id="edge1" class="edge"><title>Category&#45;&gt;Item</title>
<path fill="none" stroke="#d0b397" d="M354,-180.08C354,-174.236 354,-168.182 354,-162.069"/>
<ellipse fill="none" stroke="#d0b397" cx="354" cy="-184.297" rx="4" ry="4"/>
<polygon fill="#d0b397" stroke="#d0b397" points="354,-161.754 358.5,-151.754 354,-156.754 354,-151.754 354,-151.754 354,-151.754 354,-156.754 349.5,-151.754 354,-161.754 354,-161.754"/>
</g>
</g>
</svg>
