<?xml version="1.0" encoding="UTF-8" standalone="no"?>
<!DOCTYPE svg PUBLIC "-//W3C//DTD SVG 1.1//EN"
 "http://www.w3.org/Graphics/SVG/1.1/DTD/svg11.dtd">
<!-- Generated by graphviz version 2.38.0 (20140413.2041)
 -->
<!-- Title: models_diagram Pages: 1 -->
<svg width="918pt" height="318pt"
 viewBox="0.00 0.00 918.34 318.00" xmlns="http://www.w3.org/2000/svg" xmlns:xlink="http://www.w3.org/1999/xlink">
<g id="graph0" class="graph" transform="scale(1 1) rotate(0) translate(4 314)">
<title>models_diagram</title>
<polygon fill="none" stroke="none" points="-4,4 -4,-314 914.343,-314 914.343,4 -4,4"/>
<!-- _diagram_info -->
<g id="node1" class="node"><title>_diagram_info</title>
<text text-anchor="start" x="8" y="-281.1" font-family="Times,serif" font-size="13.00">Models diagram</text>
<text text-anchor="start" x="8" y="-267.1" font-family="Times,serif" font-size="13.00">Date: Jul 19 2017 &#45; 21:01</text>
<text text-anchor="start" x="8" y="-253.1" font-family="Times,serif" font-size="13.00">Migration version: 20170720002737</text>
<text text-anchor="start" x="8" y="-239.1" font-family="Times,serif" font-size="13.00">Generated by RailRoady 1.5.3</text>
<text text-anchor="start" x="8" y="-225.1" font-family="Times,serif" font-size="13.00">http://railroady.prestonlee.com</text>
</g>
<!-- Item -->
<g id="node2" class="node"><title>Item</title>
<path fill="none" stroke="black" d="M375,-0.5C375,-0.5 595,-0.5 595,-0.5 601,-0.5 607,-6.5 607,-12.5 607,-12.5 607,-154.5 607,-154.5 607,-160.5 601,-166.5 595,-166.5 595,-166.5 375,-166.5 375,-166.5 369,-166.5 363,-160.5 363,-154.5 363,-154.5 363,-12.5 363,-12.5 363,-6.5 369,-0.5 375,-0.5"/>
<text text-anchor="middle" x="485" y="-151.3" font-family="Times,serif" font-size="14.00">Item</text>
<polyline fill="none" stroke="black" points="363,-143.5 607,-143.5 "/>
<text text-anchor="start" x="371" y="-128.3" font-family="Times,serif" font-size="14.00">id :integer</text>
<text text-anchor="start" x="371" y="-113.3" font-family="Times,serif" font-size="14.00">item :character varying</text>
<text text-anchor="start" x="371" y="-98.3" font-family="Times,serif" font-size="14.00">nserie :integer</text>
<text text-anchor="start" x="371" y="-83.3" font-family="Times,serif" font-size="14.00">sizeItem :integer</text>
<text text-anchor="start" x="371" y="-68.3" font-family="Times,serif" font-size="14.00">depGeneric :text</text>
<text text-anchor="start" x="371" y="-53.3" font-family="Times,serif" font-size="14.00">category_id :integer</text>
<text text-anchor="start" x="371" y="-38.3" font-family="Times,serif" font-size="14.00">created_at :timestamp without time zone</text>
<text text-anchor="start" x="371" y="-23.3" font-family="Times,serif" font-size="14.00">updated_at :timestamp without time zone</text>
<text text-anchor="start" x="371" y="-8.3" font-family="Times,serif" font-size="14.00">user_id :integer</text>
</g>
<!-- ApplicationRecord -->
<g id="node3" class="node"><title>ApplicationRecord</title>
<ellipse fill="none" stroke="black" cx="833" cy="-256.5" rx="77.1866" ry="18"/>
<text text-anchor="middle" x="833" y="-252.8" font-family="Times,serif" font-size="14.00">ApplicationRecord</text>
</g>
<!-- Category -->
<g id="node4" class="node"><title>Category</title>
<path fill="none" stroke="black" d="M244,-211C244,-211 464,-211 464,-211 470,-211 476,-217 476,-223 476,-223 476,-290 476,-290 476,-296 470,-302 464,-302 464,-302 244,-302 244,-302 238,-302 232,-296 232,-290 232,-290 232,-223 232,-223 232,-217 238,-211 244,-211"/>
<text text-anchor="middle" x="354" y="-286.8" font-family="Times,serif" font-size="14.00">Category</text>
<polyline fill="none" stroke="black" points="232,-279 476,-279 "/>
<text text-anchor="start" x="240" y="-263.8" font-family="Times,serif" font-size="14.00">id :integer</text>
<text text-anchor="start" x="240" y="-248.8" font-family="Times,serif" font-size="14.00">name :character varying</text>
<text text-anchor="start" x="240" y="-233.8" font-family="Times,serif" font-size="14.00">created_at :timestamp without time zone</text>
<text text-anchor="start" x="240" y="-218.8" font-family="Times,serif" font-size="14.00">updated_at :timestamp without time zone</text>
</g>
<!-- Category&#45;&gt;Item -->
<g id="edge1" class="edge"><title>Category&#45;&gt;Item</title>
<path fill="none" stroke="#54c099" d="M393.381,-204.095C400.554,-194.732 408.226,-184.716 415.965,-174.615"/>
<ellipse fill="none" stroke="#54c099" cx="390.851" cy="-207.396" rx="4.00002" ry="4.00002"/>
<polygon fill="#54c099" stroke="#54c099" points="416.095,-174.444 425.749,-169.242 419.136,-170.475 422.177,-166.506 422.177,-166.506 422.177,-166.506 419.136,-170.475 418.605,-163.769 416.095,-174.444 416.095,-174.444"/>
</g>
<!-- User -->
<g id="node5" class="node"><title>User</title>
<path fill="none" stroke="black" d="M506,-203.5C506,-203.5 726,-203.5 726,-203.5 732,-203.5 738,-209.5 738,-215.5 738,-215.5 738,-297.5 738,-297.5 738,-303.5 732,-309.5 726,-309.5 726,-309.5 506,-309.5 506,-309.5 500,-309.5 494,-303.5 494,-297.5 494,-297.5 494,-215.5 494,-215.5 494,-209.5 500,-203.5 506,-203.5"/>
<text text-anchor="middle" x="616" y="-294.3" font-family="Times,serif" font-size="14.00">User</text>
<polyline fill="none" stroke="black" points="494,-286.5 738,-286.5 "/>
<text text-anchor="start" x="502" y="-271.3" font-family="Times,serif" font-size="14.00">id :integer</text>
<text text-anchor="start" x="502" y="-256.3" font-family="Times,serif" font-size="14.00">name :character varying</text>
<text text-anchor="start" x="502" y="-241.3" font-family="Times,serif" font-size="14.00">email :character varying</text>
<text text-anchor="start" x="502" y="-226.3" font-family="Times,serif" font-size="14.00">created_at :timestamp without time zone</text>
<text text-anchor="start" x="502" y="-211.3" font-family="Times,serif" font-size="14.00">updated_at :timestamp without time zone</text>
</g>
<!-- User&#45;&gt;Item -->
<g id="edge2" class="edge"><title>User&#45;&gt;Item</title>
<path fill="none" stroke="#1005e5" d="M570.917,-196.651C565.471,-189.542 559.815,-182.159 554.123,-174.729"/>
<ellipse fill="none" stroke="#1005e5" cx="573.551" cy="-200.09" rx="4.00002" ry="4.00002"/>
<polygon fill="#1005e5" stroke="#1005e5" points="554.021,-174.597 551.512,-163.922 550.981,-170.627 547.94,-166.658 547.94,-166.658 547.94,-166.658 550.981,-170.627 544.368,-169.395 554.021,-174.597 554.021,-174.597"/>
</g>
</g>
</svg>
